<svg xmlns="http://www.w3.org/2000/svg" width="24" height="24" viewBox="0 0 24 24" fill="currentColor" stroke="none"><path d="M22 7h-7v-2h7v2zm1.726 10c-.442 1.297-2.029 3-5.101 3-3.074 0-5.564-1.729-5.564-5.675 0-3.91 2.325-5.92 5.466-5.92 3.082 0 4.964 1.782 5.375 4.426.078.506.109 1.188.095 2.14h-8.027c.13 3.211 3.483 3.312 4.588 2.029h3.168zm-7.686-4h4.965c-.105-1.546-1.436-2.352-2.461-2.352-1.038 0-2.343.604-2.504 2.352zm-8.47 6.038H0V3h7.125c1.838 0 3.326.685 4.256 1.768.91 1.054 1.258 2.459 1.258 3.847 0 1.737-.732 3.166-1.781 4.074 1.487.669 2.503 2.128 2.503 4.195 0 1.22-.387 2.47-1.157 3.435-1.077 1.346-2.732 2.719-5.266 2.719H7.57zm-4.707-8.318h3.948c1.391 0 2.227-.376 2.731-.912.449-.477.712-1.229.712-2.181 0-.965-.251-1.636-.666-2.102-.45-.505-1.168-.823-2.614-.823H2.863v6.018zm0 5.753h4.316c1.691 0 2.583-.43 3.129-.988.513-.524.846-1.392.846-2.518 0-1.153-.332-1.921-.837-2.441-.53-.545-1.353-.949-3.003-.949H2.863v6.896z"/></svg>
